# xmcd
# 
# Track frame offsets:
#     150
#     16648
#     30489
#     41874
#     60244
#     77667
#     94653
#     109966
#     130451
#     146640
#     158845
#     172985
#     190824
#     209776
#     225008
#     240324
#     258947
#     269164
#     280028
#     295341
#     320620
# 
# Disc length: 4398
# 
# Revision: 1
# Processed by: cddbd v1.5.2PL0 Copyright (c) Steve Scherf et al.
# Submitted via: fre:ac v1.0.31
# 
DISCID=23112c15
DTITLE=Various Artist - Jukebox Vol.3
DYEAR=2002
DGENRE=Country
TTITLE0=Liz Abella - A Place In My Heart
TTITLE1=Olsen Brothers - Do You Wanne Dance
TTITLE2=Kikki Danielssons - The Only True Man
TTITLE3=Dean Brothers - Mony Mony
TTITLE4=Easy Rider - Union Mare, Confederate Grey
TTITLE5=K.T.Oslin - Live Close By, Visit Often
TTITLE6=Kentucky Headhunters - Jessico
TTITLE7=Larry Joe Taylor - Island Time
TTITLE8=Ashley Jay - Standin' Stil
TTITLE9=Ronnie Beard - Hillbillyville
TTITLE10=Carter and Carter - You Were There
TTITLE11=Paul Overstreet - Wheb You Say Nothing At All
TTITLE12=Keisa Brown - Some Bridges Need Burning
TTITLE13=Tania Kernaghan - Dunroamin' Station
TTITLE14=Billy Curtis - Free
TTITLE15=Rick Tippe - Captured
TTITLE16=Gail Davies - I'll Be There
TTITLE17=Damon Gray - Terrible Two's
TTITLE18=Jody Jenkins - The Promise
TTITLE19=Nadine Somers - Temptation
TTITLE20=j - DATA
EXTD=
EXTT0=
EXTT1=
EXTT2=
EXTT3=
EXTT4=
EXTT5=
EXTT6=
EXTT7=
EXTT8=
EXTT9=
EXTT10=
EXTT11=
EXTT12=
EXTT13=
EXTT14=
EXTT15=
EXTT16=
EXTT17=
EXTT18=
EXTT19=
EXTT20=
PLAYORDER=
